PathFileType	4	(X/Y/Z)	D:/视觉行为平台/test_2/20260814/mocap/street1/street1-Unnamed.trc
DataRate	CameraRate	NumFrames	NumMarkers	Units	OrigDataRate	OrigDataStartFrame	OrigNumFrames	useTimeStamp
90	90	     122	0	mm	90	11315	     22628	         1
Frame#	Time	Timestamp	
			X1	Y1	Z1	X2	Y2	Z2	X3	Y3	Z3	X4	Y4	Z4	X5	Y5	Z5	X6	Y6	Z6	X7	Y7	Z7	X8	Y8	Z8	X9	Y9	Z9	X10	Y10	Z10	X11	Y11	Z11	X12	Y12	Z12	X13	Y13	Z13	X14	Y14	Z14	X15	Y15	Z15	X16	Y16	Z16	X17	Y17	Z17	X18	Y18	Z18	X19	Y19	Z19	X20	Y20	Z20	X21	Y21	Z21	X22	Y22	Z22	X23	Y23	Z23	X24	Y24	Z24	X25	Y25	Z25	X26	Y26	Z26	X27	Y27	Z27	X28	Y28	Z28	X29	Y29	Z29	X30	Y30	Z30	X31	Y31	Z31	X32	Y32	Z32	X33	Y33	Z33	X34	Y34	Z34	X35	Y35	Z35	X36	Y36	Z36	X37	Y37	Z37	X38	Y38	Z38	X39	Y39	Z39	X40	Y40	Z40	X41	Y41	Z41	X42	Y42	Z42	X43	Y43	Z43	X44	Y44	Z44	X45	Y45	Z45	X46	Y46	Z46	X47	Y47	Z47	X48	Y48	Z48	X49	Y49	Z49	X50	Y50	Z50	X51	Y51	Z51	X52	Y52	Z52	X53	Y53	Z53	X54	Y54	Z54	X55	Y55	Z55	

11315	125.711	1787219072727	128.959747	294.993958	-62.654640	
11316	125.722	1787219072737	128.491959	296.463257	-57.005077	
11317	125.733	1787219072750	127.811134	298.161499	-50.853333	
11318	125.744	1787219072761	127.246162	300.112335	-43.934212	
11319	125.755	1787219072773	127.129784	302.365631	-36.365711	
11320	125.766	1787219072783	126.471909	304.632263	-27.735386	
11321	125.777	1787219072793	
11322	125.788	1787219072804	
11323	125.800	1787219072813	
11324	125.811	1787219072824	
11325	125.822	1787219072835	
11326	125.833	1787219072847	
11327	125.844	1787219072859	
11328	125.855	1787219072868	
11329	125.866	1787219072880	
11330	125.877	1787219072891	
11331	125.888	1787219072902	
11332	125.900	1787219072913	
11333	125.911	1787219072926	
11334	125.922	1787219072936	
11335	125.933	1787219072947	
11336	125.944	1787219072958	
11337	125.955	1787219072969	
11338	125.966	1787219072980	
11339	125.977	1787219072991	
11340	125.988	1787219073002	
11341	126.000	1787219073013	
11342	126.011	1787219073024	
11343	126.022	1787219073035	
11344	126.033	1787219073046	
11345	126.044	1787219073057	
11346	126.055	1787219073069	
11347	126.066	1787219073080	
11348	126.077	1787219073092	
11349	126.088	1787219073102	
11350	126.100	1787219073113	
11351	126.111	1787219073124	
11352	126.122	1787219073135	
11353	126.133	1787219073147	
11354	126.144	1787219073157	
11355	126.155	1787219073170	
11356	126.166	1787219073180	
11357	126.177	1787219073191	
11358	126.188	1787219073202	
11359	126.200	1787219073213	
11360	126.211	1787219073225	
11361	126.222	1787219073235	
11362	126.233	1787219073247	
11363	126.244	1787219073257	
11364	126.255	1787219073269	
11365	126.266	1787219073279	
11366	126.277	1787219073291	
11367	126.288	1787219073302	
11368	126.300	1787219073313	
11369	126.311	1787219073324	
11370	126.322	1787219073336	
11371	126.333	1787219073347	
11372	126.344	1787219073358	
11373	126.355	1787219073369	
11374	126.366	1787219073380	
11375	126.377	1787219073391	
11376	126.388	1787219073402	
11377	126.400	1787219073413	
11378	126.411	1787219073424	
11379	126.422	1787219073435	
11380	126.433	1787219073447	
11381	126.444	1787219073457	
11382	126.455	1787219073469	
11383	126.466	1787219073480	
11384	126.477	1787219073491	
11385	126.488	1787219073502	
11386	126.500	1787219073513	
11387	126.511	1787219073524	
11388	126.522	1787219073536	
11389	126.533	1787219073546	
11390	126.544	1787219073557	
11391	126.555	1787219073569	
11392	126.566	1787219073580	
11393	126.577	1787219073591	
11394	126.588	1787219073602	
11395	126.600	1787219073613	
11396	126.611	1787219073624	
11397	126.622	1787219073635	
11398	126.633	1787219073647	
11399	126.644	1787219073658	
11400	126.655	1787219073668	
11401	126.666	1787219073680	
11402	126.677	1787219073691	
11403	126.688	1787219073702	
11404	126.700	1787219073713	
11405	126.711	1787219073724	
11406	126.722	1787219073735	
11407	126.733	1787219073747	
11408	126.744	1787219073758	
11409	126.755	1787219073769	
11410	126.766	1787219073780	
11411	126.777	1787219073791	
11412	126.788	1787219073802	
11413	126.800	1787219073813	
11414	126.811	1787219073824	
11415	126.822	1787219073835	
11416	126.833	1787219073848	
11417	126.844	1787219073857	
11418	126.855	1787219073869	
11419	126.866	1787219073880	
11420	126.877	1787219073891	
11421	126.888	1787219073902	
11422	126.900	1787219073913	
11423	126.911	1787219073924	
11424	126.922	1787219073935	
11425	126.933	1787219073946	
11426	126.944	1787219073957	
11427	126.955	1787219073968	
11428	126.966	1787219073980	
11429	126.977	1787219073991	
11430	126.988	1787219074002	
11431	127.000	1787219074013	-126.324684	293.095154	791.910034	
11432	127.011	1787219074025	-128.035614	292.184143	798.871887	
11433	127.022	1787219074036	-130.103256	290.648773	805.251648	
11434	127.033	1787219074047	-129.437073	291.134277	811.422424	
11435	127.044	1787219074058	-130.404449	291.381012	817.611389	
11436	127.055	1787219074069	-130.772934	292.615143	823.675110	
